<?xml version="1.0" encoding="UTF-8"?>
<svg id="Layer_2" data-name="Layer 2" xmlns="http://www.w3.org/2000/svg" xmlns:xlink="http://www.w3.org/1999/xlink" viewBox="0 0 757.88 528.95">
  <defs>
    <style>
      .cls-1 {
        fill: url(#linear-gradient-2);
        fill-rule: evenodd;
      }

      .cls-2 {
        fill: url(#linear-gradient-4);
      }

      .cls-3 {
        fill: url(#linear-gradient-3);
      }

      .cls-4 {
        fill: url(#linear-gradient);
      }

      .cls-5 {
        fill: #4a4b4b;
      }
    </style>
    <linearGradient id="linear-gradient" x1="671.71" y1="327.05" x2="519.93" y2="218.47" gradientUnits="userSpaceOnUse">
      <stop offset="0" stop-color="#ed1c24"/>
      <stop offset="1" stop-color="#840000"/>
    </linearGradient>
    <linearGradient id="linear-gradient-2" x1="27.74" y1="90.66" x2="-81.62" y2="142.7" gradientTransform="translate(497.52 -68.41) rotate(-176.46) scale(1.06 -1) skewX(.95)" gradientUnits="userSpaceOnUse">
      <stop offset="0" stop-color="#e31b22"/>
      <stop offset="1" stop-color="#f7941d"/>
    </linearGradient>
    <linearGradient id="linear-gradient-3" x1="-26.11" y1="124.05" x2="-126.64" y2="131.56" gradientTransform="translate(481.37 -52.21) rotate(-175.16) scale(1 -1)" xlink:href="#linear-gradient-2"/>
    <linearGradient id="linear-gradient-4" x1="-100.84" y1="-7.4" x2="-239.52" y2="27.27" gradientTransform="translate(360.72 38.46) rotate(-149.42) scale(1 -1)" xlink:href="#linear-gradient-2"/>
  </defs>
  <g id="Layer_1-2" data-name="Layer 1">
    <g>
      <g>
        <path class="cls-4" d="M733.72,186.73l-143.94-83.1c-.55,18.26.97,41.65,11.1,51.45h0l113.33,65.43c4.2,2.43,4.65,6.45,4.65,8.07s-.45,5.64-4.65,8.07l-194.23,112.14c-4.2,2.41-7.91.81-9.32,0-1.4-.81-4.66-3.21-4.66-8.06v-21.33s-9.3,19.18-39.01,15.98v5.34c0,17.47,9.04,33.11,24.17,41.85,7.56,4.37,15.86,6.55,24.17,6.55s16.6-2.19,24.16-6.55l194.23-112.14c15.13-8.73,24.16-24.38,24.16-41.85s-9.03-33.12-24.16-41.85Z"/>
        <path class="cls-1" d="M430.02,0s-.9,28.3,41.51,44.14c29.05,10.85,54.19,4.37,65.11,21.69,0,0-.26-32.55-38.84-43.58-29.54-8.44-56.47-8.07-67.78-22.25Z"/>
        <path class="cls-3" d="M553.69,75.98c-16.93-50.68-40.97-61.27-54.79-63.49,19.38-4.43,55.91,4.36,72.62,41.67,13.95,31.14,28.09,7.01,17.67-5.99,37.23,21.58-7.15,78.47,11.7,106.9-21.01-13.22-35.93-45.38-47.2-79.1Z"/>
        <path class="cls-2" d="M399.72,18.24s-12.13,62.82,21.37,112.92c23.56,35.23,77.7,42.14,84.92,70.72,2.23-22.35-14.74-40.48-27.28-48.7-23.75-15.56-45.34-35.87-45.66-62.16,37.18,33.47,76.4,14.98,107.89,63.87,13.19,20.49,7.9,57.33,3.01,70.02,19.77-25.14,28.47-61.91,15.32-99.21-13.86-39.31-48.73-62.64-65.49-64.35,0,0,15.19,12.69,3.81,24.04-10.32,10.3-78.19-25.43-97.9-67.16Z"/>
      </g>
      <g>
        <path class="cls-5" d="M23.84,332.93c-7.13-2.92-12.82-7.24-17.09-12.97-4.27-5.72-6.52-12.62-6.75-20.68h31.9c.47,4.56,2.04,8.04,4.73,10.43,2.69,2.4,6.19,3.59,10.52,3.59s7.94-1.02,10.52-3.07c2.57-2.04,3.86-4.88,3.86-8.5,0-3.04-1.02-5.55-3.07-7.54-2.05-1.99-4.56-3.62-7.54-4.91-2.98-1.28-7.22-2.74-12.71-4.38-7.95-2.45-14.43-4.91-19.45-7.36-5.03-2.45-9.35-6.07-12.97-10.87-3.62-4.79-5.43-11.04-5.43-18.75,0-11.45,4.15-20.42,12.44-26.9,8.3-6.49,19.1-9.73,32.42-9.73s24.48,3.24,32.78,9.73c8.29,6.48,12.73,15.51,13.32,27.08h-32.42c-.24-3.97-1.69-7.1-4.38-9.38-2.69-2.28-6.13-3.42-10.34-3.42-3.62,0-6.54.96-8.76,2.89-2.22,1.93-3.33,4.71-3.33,8.33,0,3.97,1.87,7.07,5.61,9.29,3.74,2.22,9.58,4.62,17.53,7.19,7.94,2.69,14.4,5.26,19.37,7.71,4.97,2.45,9.26,6.02,12.88,10.69,3.62,4.67,5.43,10.69,5.43,18.05s-1.78,13.38-5.35,19.1c-3.57,5.73-8.74,10.28-15.51,13.67-6.78,3.39-14.78,5.08-24.01,5.08s-17.06-1.46-24.19-4.38Z"/>
        <path class="cls-5" d="M217.86,213.04v123.04h-29.97v-50.65h-46.62v50.65h-29.97v-123.04h29.97v48.2h46.62v-48.2h29.97Z"/>
        <path class="cls-5" d="M269.39,213.04v123.04h-29.97v-123.04h29.97Z"/>
        <path class="cls-5" d="M401.19,336.08h-29.97l-50.13-75.89v75.89h-29.97v-123.04h29.97l50.13,76.24v-76.24h29.97v123.04Z"/>
        <path class="cls-5" d="M504.6,251.95c-2.22-4.09-5.41-7.21-9.55-9.38-4.15-2.16-9.03-3.24-14.63-3.24-9.7,0-17.47,3.18-23.31,9.55-5.84,6.37-8.76,14.87-8.76,25.5,0,11.33,3.07,20.19,9.2,26.55,6.13,6.37,14.57,9.55,25.33,9.55,7.36,0,13.58-1.87,18.67-5.61,5.08-3.74,8.79-9.11,11.13-16.12h-38.03v-22.08h65.2v27.87c-2.22,7.48-5.99,14.43-11.3,20.86-5.32,6.43-12.07,11.63-20.24,15.6-8.18,3.97-17.41,5.96-27.69,5.96-12.15,0-22.99-2.66-32.51-7.97-9.52-5.32-16.94-12.71-22.26-22.17-5.32-9.46-7.97-20.27-7.97-32.42s2.66-22.99,7.97-32.51c5.32-9.52,12.71-16.94,22.17-22.26,9.46-5.32,20.27-7.97,32.42-7.97,14.72,0,27.14,3.57,37.25,10.69,10.11,7.13,16.8,17,20.07,29.62h-33.13Z"/>
        <path class="cls-5" d="M22.52,524.75c-6.13-2.8-10.95-6.72-14.46-11.74-3.51-5.02-5.38-10.63-5.61-16.83h12.97c.58,5.96,3.21,11.19,7.89,15.69,4.67,4.5,11.51,6.75,20.51,6.75,8.3,0,14.87-2.13,19.72-6.4,4.85-4.26,7.27-9.67,7.27-16.21,0-5.26-1.34-9.49-4.03-12.71-2.69-3.21-6.02-5.61-9.99-7.19-3.97-1.58-9.46-3.3-16.48-5.17-8.18-2.22-14.67-4.38-19.45-6.49-4.79-2.1-8.88-5.37-12.27-9.81-3.39-4.44-5.08-10.46-5.08-18.05,0-6.31,1.63-11.95,4.91-16.91,3.27-4.97,7.89-8.85,13.85-11.66,5.96-2.8,12.79-4.21,20.51-4.21,11.33,0,20.48,2.78,27.43,8.33,6.95,5.55,10.95,12.71,12.01,21.47h-13.32c-.82-5.02-3.57-9.49-8.24-13.41-4.67-3.91-10.98-5.87-18.93-5.87-7.36,0-13.5,1.96-18.4,5.87-4.91,3.92-7.36,9.26-7.36,16.04,0,5.14,1.34,9.29,4.03,12.44,2.69,3.15,6.05,5.55,10.08,7.19,4.03,1.64,9.49,3.39,16.39,5.26,7.94,2.22,14.37,4.41,19.28,6.57,4.91,2.16,9.05,5.46,12.44,9.9,3.39,4.44,5.08,10.4,5.08,17.88,0,5.73-1.52,11.16-4.56,16.3-3.04,5.14-7.54,9.29-13.5,12.44-5.96,3.16-13.09,4.73-21.38,4.73s-15.16-1.4-21.29-4.21Z"/>
        <path class="cls-5" d="M197.88,405.21v122.51h-12.27v-57.31h-66.43v57.31h-12.27v-122.51h12.27v55.03h66.43v-55.03h12.27Z"/>
        <path class="cls-5" d="M250.11,520.98c-9.23-5.32-16.51-12.73-21.82-22.26-5.32-9.52-7.97-20.3-7.97-32.34s2.66-22.81,7.97-32.34c5.32-9.52,12.59-16.94,21.82-22.26,9.23-5.32,19.51-7.97,30.85-7.97s21.79,2.66,31.02,7.97c9.23,5.32,16.48,12.74,21.73,22.26,5.26,9.52,7.89,20.3,7.89,32.34s-2.63,22.81-7.89,32.34c-5.26,9.52-12.5,16.94-21.73,22.26-9.23,5.32-19.57,7.97-31.02,7.97s-21.62-2.66-30.85-7.97ZM305.49,511.95c7.24-4.21,12.97-10.25,17.18-18.14,4.21-7.89,6.31-17.03,6.31-27.43s-2.1-19.51-6.31-27.34c-4.21-7.83-9.93-13.85-17.18-18.05-7.25-4.21-15.42-6.31-24.54-6.31s-17.29,2.1-24.54,6.31c-7.25,4.21-12.97,10.23-17.18,18.05-4.21,7.83-6.31,16.94-6.31,27.34s2.1,19.54,6.31,27.43c4.21,7.89,9.93,13.93,17.18,18.14,7.24,4.21,15.42,6.31,24.54,6.31s17.29-2.1,24.54-6.31Z"/>
        <path class="cls-5" d="M429.23,527.73l-30.32-51.18h-22.61v51.18h-12.27v-122.51h36.81c13.67,0,24.04,3.27,31.11,9.81,7.07,6.55,10.6,15.13,10.6,25.76,0,8.88-2.54,16.45-7.62,22.7-5.08,6.25-12.59,10.31-22.52,12.18l31.55,52.05h-14.72ZM376.3,466.56h24.71c9.58,0,16.8-2.34,21.65-7.01,4.85-4.67,7.27-10.92,7.27-18.75s-2.34-14.28-7.01-18.67c-4.67-4.38-12.04-6.57-22.08-6.57h-24.54v51Z"/>
        <path class="cls-5" d="M538.6,405.21v10.17h-34v112.35h-12.27v-112.35h-34.18v-10.17h80.45Z"/>
        <path class="cls-5" d="M573.92,524.75c-6.13-2.8-10.96-6.72-14.46-11.74-3.51-5.02-5.38-10.63-5.61-16.83h12.97c.58,5.96,3.21,11.19,7.89,15.69,4.67,4.5,11.51,6.75,20.51,6.75,8.29,0,14.87-2.13,19.72-6.4,4.85-4.26,7.27-9.67,7.27-16.21,0-5.26-1.34-9.49-4.03-12.71-2.69-3.21-6.02-5.61-9.99-7.19-3.97-1.58-9.46-3.3-16.48-5.17-8.18-2.22-14.67-4.38-19.45-6.49-4.79-2.1-8.88-5.37-12.27-9.81-3.39-4.44-5.08-10.46-5.08-18.05,0-6.31,1.64-11.95,4.91-16.91,3.27-4.97,7.89-8.85,13.85-11.66,5.96-2.8,12.79-4.21,20.51-4.21,11.33,0,20.48,2.78,27.43,8.33,6.95,5.55,10.95,12.71,12.01,21.47h-13.32c-.82-5.02-3.57-9.49-8.24-13.41-4.67-3.91-10.98-5.87-18.93-5.87-7.36,0-13.5,1.96-18.4,5.87-4.91,3.92-7.36,9.26-7.36,16.04,0,5.14,1.34,9.29,4.03,12.44,2.69,3.15,6.05,5.55,10.08,7.19,4.03,1.64,9.49,3.39,16.39,5.26,7.94,2.22,14.37,4.41,19.28,6.57,4.91,2.16,9.05,5.46,12.44,9.9,3.39,4.44,5.08,10.4,5.08,17.88,0,5.73-1.52,11.16-4.56,16.3-3.04,5.14-7.54,9.29-13.5,12.44-5.96,3.16-13.09,4.73-21.38,4.73s-15.16-1.4-21.29-4.21Z"/>
      </g>
    </g>
  </g>
</svg>